<?xml version="1.0" standalone="no"?><!DOCTYPE svg PUBLIC "-//W3C//DTD SVG 1.1//EN" "http://www.w3.org/Graphics/SVG/1.1/DTD/svg11.dtd"><svg height="1024" node-id="1" sillyvg="true" template-height="1024" template-width="1024" version="1.1" viewBox="0 0 1024 1024" width="1024" xmlns="http://www.w3.org/2000/svg" xmlns:xlink="http://www.w3.org/1999/xlink"><defs node-id="126"><radialGradient cx="0.5" cy="0.19668992" fx="0.5" fy="0.19668992" gradientTransform="matrix(0 1 -0.912281 0 0.67943655 -0.30331)" gradientUnits="objectBoundingBox" id="radialGradient-1" node-id="5" r="0.9393923" rev="3" spreadMethod="pad"><stop offset="0" stop-color="#ffe476"></stop><stop offset="0.41387266" stop-color="#fcec6c"></stop><stop offset="1" stop-color="#ffb02f"></stop></radialGradient><linearGradient gradientUnits="objectBoundingBox" id="linearGradient-8" node-id="25" spreadMethod="pad" x1="0.5" x2="0.5" y1="0" y2="1"><stop offset="0" stop-color="#ffffff"></stop><stop offset="1" stop-color="#ffedbe"></stop></linearGradient><linearGradient gradientUnits="objectBoundingBox" id="linearGradient-19" node-id="60" spreadMethod="pad" x1="0.5" x2="0.5" y1="0.19668992" y2="1.1360823"><stop offset="0" stop-color="#ffe992"></stop><stop offset="0.4151543" stop-color="#fff185"></stop><stop offset="1" stop-color="#ffb02f"></stop></linearGradient><filter height="1.173" id="filter-3" node-id="10" width="1.158" x="-0.079" y="-0.087"><feGaussianBlur color-interpolation-filters="linearRGB" in="SourceAlpha" result="shadowBlurInner1" stdDeviation="64 64"></feGaussianBlur><feOffset color-interpolation-filters="linearRGB" dx="0" dy="16" in="shadowBlurInner1" result="shadowOffsetInner1"></feOffset><feComposite color-interpolation-filters="linearRGB" in="shadowOffsetInner1" in2="SourceAlpha" k1="0" k2="-1" k3="1" k4="0" operator="arithmetic" result="shadowInnerInner1"></feComposite><feColorMatrix color-interpolation-filters="linearRGB" in="shadowInnerInner1" result="result4" type="matrix" values="0 0 0 0 0.968627451 0 0 0 0 0.68627451 0 0 0 0 0.270588235 0 0 0 0.501145583 0"></feColorMatrix></filter><filter height="1.189" id="filter-5" node-id="16" width="1.053" x="-0.026" y="-0.095"><feGaussianBlur color-interpolation-filters="linearRGB" in="SourceAlpha" result="shadowBlurInner1" stdDeviation="8 8"></feGaussianBlur><feOffset color-interpolation-filters="linearRGB" dx="0" dy="0" in="shadowBlurInner1" result="shadowOffsetInner1"></feOffset><feComposite color-interpolation-filters="linearRGB" in="shadowOffsetInner1" in2="SourceAlpha" k1="0" k2="-1" k3="1" k4="0" operator="arithmetic" result="shadowInnerInner1"></feComposite><feColorMatrix color-interpolation-filters="linearRGB" in="shadowInnerInner1" result="result4" type="matrix" values="0 0 0 0 0.661258421 0 0 0 0 0.0872254633 0 0 0 0 0.00982776113 0 0 0 1 0"></feColorMatrix></filter><filter height="3.571" id="filter-6" node-id="21" width="2.636" x="-0.818" y="-1.286"><feGaussianBlur color-interpolation-filters="linearRGB" in="SourceGraphic" result="result1" stdDeviation="48 48"></feGaussianBlur></filter><filter height="3.571" id="filter-7" node-id="23" width="2.636" x="-0.818" y="-1.286"><feGaussianBlur color-interpolation-filters="linearRGB" in="SourceGraphic" result="result1" stdDeviation="48 48"></feGaussianBlur></filter><filter height="2.091" id="filter-10" node-id="29" width="1.667" x="-0.333" y="-0.545"><feOffset color-interpolation-filters="linearRGB" dx="0" dy="0" in="SourceAlpha" result="shadowOffsetOuter1"></feOffset><feGaussianBlur color-interpolation-filters="linearRGB" in="shadowOffsetOuter1" result="shadowBlurOuter1" stdDeviation="32 32"></feGaussianBlur><feColorMatrix color-interpolation-filters="linearRGB" in="shadowBlurOuter1" result="result3" type="matrix" values="0 0 0 0 0.888848346 0 0 0 0 0.591702642 0 0 0 0 0.178785883 0 0 0 1 0"></feColorMatrix></filter><filter height="1.909" id="filter-11" node-id="33" width="1.556" x="-0.278" y="-0.455"><feGaussianBlur color-interpolation-filters="linearRGB" in="SourceAlpha" result="shadowBlurInner1" stdDeviation="16 16"></feGaussianBlur><feOffset color-interpolation-filters="linearRGB" dx="0" dy="0" in="shadowBlurInner1" result="shadowOffsetInner1"></feOffset><feComposite color-interpolation-filters="linearRGB" in="shadowOffsetInner1" in2="SourceAlpha" k1="0" k2="-1" k3="1" k4="0" operator="arithmetic" result="shadowInnerInner1"></feComposite><feColorMatrix color-interpolation-filters="linearRGB" in="shadowInnerInner1" result="result4" type="matrix" values="0 0 0 0 1 0 0 0 0 0.880587925 0 0 0 0 0.537254902 0 0 0 0.500726446 0"></feColorMatrix></filter><filter height="1.26" id="filter-13" node-id="39" width="1.27" x="-0.135" y="-0.13"><feGaussianBlur color-interpolation-filters="linearRGB" in="SourceAlpha" result="shadowBlurInner1" stdDeviation="16 16"></feGaussianBlur><feOffset color-interpolation-filters="linearRGB" dx="0" dy="0" in="shadowBlurInner1" result="shadowOffsetInner1"></feOffset><feComposite color-interpolation-filters="linearRGB" in="shadowOffsetInner1" in2="SourceAlpha" k1="0" k2="-1" k3="1" k4="0" operator="arithmetic" result="shadowInnerInner1"></feComposite><feColorMatrix color-interpolation-filters="linearRGB" in="shadowInnerInner1" result="result4" type="matrix" values="0 0 0 0 0.322660142 0 0 0 0 0 0 0 0 0 0.0976114716 0 0 0 1 0"></feColorMatrix></filter><filter height="2.091" id="filter-15" node-id="45" width="1.667" x="-0.333" y="-0.545"><feOffset color-interpolation-filters="linearRGB" dx="0" dy="0" in="SourceAlpha" result="shadowOffsetOuter1"></feOffset><feGaussianBlur color-interpolation-filters="linearRGB" in="shadowOffsetOuter1" result="shadowBlurOuter1" stdDeviation="32 32"></feGaussianBlur><feColorMatrix color-interpolation-filters="linearRGB" in="shadowBlurOuter1" result="result3" type="matrix" values="0 0 0 0 0.888848346 0 0 0 0 0.591702642 0 0 0 0 0.178785883 0 0 0 1 0"></feColorMatrix></filter><filter height="1.909" id="filter-16" node-id="49" width="1.556" x="-0.278" y="-0.455"><feGaussianBlur color-interpolation-filters="linearRGB" in="SourceAlpha" result="shadowBlurInner1" stdDeviation="16 16"></feGaussianBlur><feOffset color-interpolation-filters="linearRGB" dx="0" dy="0" in="shadowBlurInner1" result="shadowOffsetInner1"></feOffset><feComposite color-interpolation-filters="linearRGB" in="shadowOffsetInner1" in2="SourceAlpha" k1="0" k2="-1" k3="1" k4="0" operator="arithmetic" result="shadowInnerInner1"></feComposite><feColorMatrix color-interpolation-filters="linearRGB" in="shadowInnerInner1" result="result4" type="matrix" values="0 0 0 0 1 0 0 0 0 0.880587925 0 0 0 0 0.537254902 0 0 0 0.500726446 0"></feColorMatrix></filter><filter height="1.26" id="filter-18" node-id="55" width="1.27" x="-0.135" y="-0.13"><feGaussianBlur color-interpolation-filters="linearRGB" in="SourceAlpha" result="shadowBlurInner1" stdDeviation="16 16"></feGaussianBlur><feOffset color-interpolation-filters="linearRGB" dx="0" dy="0" in="shadowBlurInner1" result="shadowOffsetInner1"></feOffset><feComposite color-interpolation-filters="linearRGB" in="shadowOffsetInner1" in2="SourceAlpha" k1="0" k2="-1" k3="1" k4="0" operator="arithmetic" result="shadowInnerInner1"></feComposite><feColorMatrix color-interpolation-filters="linearRGB" in="shadowInnerInner1" result="result4" type="matrix" values="0 0 0 0 0.322660142 0 0 0 0 0 0 0 0 0 0.0976114716 0 0 0 1 0"></feColorMatrix></filter><filter height="1.322" id="filter-21" node-id="65" width="1.321" x="-0.106" y="-0.161"><feMorphology color-interpolation-filters="linearRGB" in="SourceAlpha" operator="dilate" radius="6.4 6.4" result="shadowSpreadOuter1"></feMorphology><feOffset color-interpolation-filters="linearRGB" dx="32" dy="0" in="shadowSpreadOuter1" result="shadowOffsetOuter1"></feOffset><feGaussianBlur color-interpolation-filters="linearRGB" in="shadowOffsetOuter1" result="shadowBlurOuter1" stdDeviation="24 24"></feGaussianBlur><feComposite color-interpolation-filters="linearRGB" in="shadowBlurOuter1" in2="SourceAlpha" operator="out" result="shadowBlurOuter1"></feComposite><feColorMatrix color-interpolation-filters="linearRGB" in="shadowBlurOuter1" result="shadowMatrixOuter1" type="matrix" values="0 0 0 0 0.696364251 0 0 0 0 0.548689709 0 0 0 0 0.14785881 0 0 0 0.684966401 0"></feColorMatrix><feMorphology color-interpolation-filters="linearRGB" in="SourceAlpha" operator="dilate" radius="6.4 6.4" result="shadowSpreadOuter2"></feMorphology><feOffset color-interpolation-filters="linearRGB" dx="32" dy="0" in="shadowSpreadOuter2" result="shadowOffsetOuter2"></feOffset><feGaussianBlur color-interpolation-filters="linearRGB" in="shadowOffsetOuter2" result="shadowBlurOuter2" stdDeviation="24 24"></feGaussianBlur><feComposite color-interpolation-filters="linearRGB" in="shadowBlurOuter2" in2="SourceAlpha" operator="out" result="shadowBlurOuter2"></feComposite><feColorMatrix color-interpolation-filters="linearRGB" in="shadowBlurOuter2" result="shadowMatrixOuter2" type="matrix" values="0 0 0 0 0.696364251 0 0 0 0 0.548689709 0 0 0 0 0.14785881 0 0 0 0.684966401 0"></feColorMatrix><feMerge color-interpolation-filters="linearRGB" result="result11"><feMergeNode in="shadowMatrixOuter1"></feMergeNode><feMergeNode in="shadowMatrixOuter2"></feMergeNode></feMerge></filter><filter height="1.294" id="filter-22" node-id="79" width="1.294" x="-0.093" y="-0.147"><feGaussianBlur color-interpolation-filters="linearRGB" in="SourceAlpha" result="shadowBlurInner1" stdDeviation="32 32"></feGaussianBlur><feOffset color-interpolation-filters="linearRGB" dx="0" dy="0" in="shadowBlurInner1" result="shadowOffsetInner1"></feOffset><feComposite color-interpolation-filters="linearRGB" in="shadowOffsetInner1" in2="SourceAlpha" k1="0" k2="-1" k3="1" k4="0" operator="arithmetic" result="shadowInnerInner1"></feComposite><feColorMatrix color-interpolation-filters="linearRGB" in="shadowInnerInner1" result="result4" type="matrix" values="0 0 0 0 0.989893374 0 0 0 0 0.520045047 0 0 0 0 0.018873497 0 0 0 1 0"></feColorMatrix></filter></defs><g node-id="403"><path d="M 0.00 0.00 L 1024.00 0.00 L 1024.00 1024.00 L 0.00 1024.00 Z" fill="none" group-id="1" id="矩形备份-3" node-id="86" stroke="none" target-height="1024" target-width="1024" target-x="0" target-y="0"></path><g node-id="404"><g node-id="408"><g node-id="420"><path d="M 470.86 96.38 L 485.27 96.01 L 499.38 96.26 L 513.21 97.12 L 526.78 98.56 L 540.11 100.60 L 553.45 103.25 L 566.45 106.45 L 579.14 110.18 L 591.52 114.44 L 603.62 119.24 L 615.55 124.62 L 627.10 130.48 L 638.29 136.81 L 649.13 143.63 L 659.63 150.95 L 669.80 158.75 L 679.54 166.99 L 688.88 175.66 L 697.82 184.77 L 706.36 194.34 L 714.43 204.28 L 722.02 214.61 L 729.16 225.35 L 735.83 236.49 L 742.05 248.07 L 753.36 253.33 L 764.52 258.98 L 775.54 265.01 L 786.41 271.43 L 797.15 278.25 L 810.23 287.24 L 822.93 296.74 L 835.27 306.77 L 847.26 317.34 L 856.54 326.15 L 865.50 335.23 L 874.13 344.59 L 882.46 354.24 L 890.47 364.18 L 898.14 374.40 L 905.41 384.85 L 912.28 395.53 L 918.76 406.44 L 924.86 417.61 L 930.52 428.99 L 935.71 440.56 L 940.44 452.32 L 944.70 464.28 L 948.49 476.45 L 951.77 488.74 L 954.50 501.18 L 956.70 513.79 L 958.35 526.58 L 959.46 539.55 L 959.98 552.48 L 959.88 565.54 L 959.17 578.77 L 957.83 592.16 L 955.84 605.75 L 953.02 620.58 L 949.77 634.95 L 946.10 648.88 L 942.01 662.38 L 937.51 675.47 L 932.61 688.17 L 927.16 700.86 L 921.32 713.16 L 915.10 725.06 L 908.50 736.57 L 901.52 747.73 L 894.15 758.52 L 886.33 769.08 L 878.15 779.28 L 869.61 789.13 L 860.71 798.64 L 851.44 807.81 L 841.79 816.64 L 831.85 825.09 L 821.58 833.20 L 810.95 840.98 L 799.96 848.44 L 788.61 855.57 L 776.88 862.38 L 768.16 867.78 L 758.82 873.07 L 748.83 878.22 L 738.14 883.24 L 727.49 887.78 L 716.08 892.19 L 703.87 896.45 L 690.83 900.56 L 677.95 904.20 L 664.18 907.67 L 649.47 910.97 L 633.78 914.08 L 618.38 916.75 L 601.95 919.23 L 584.46 921.49 L 565.85 923.53 L 544.70 925.39 L 523.95 926.75 L 503.60 927.61 L 483.64 927.98 L 464.05 927.87 L 444.19 927.26 L 424.81 926.15 L 405.90 924.54 L 387.44 922.45 L 369.42 919.89 L 351.22 916.75 L 333.57 913.11 L 316.44 908.98 L 299.82 904.39 L 283.69 899.32 L 270.19 894.59 L 257.10 889.51 L 244.41 884.11 L 232.10 878.37 L 220.16 872.30 L 208.58 865.90 L 197.11 859.00 L 186.06 851.76 L 175.42 844.18 L 165.17 836.25 L 155.30 827.97 L 145.82 819.34 L 136.67 810.30 L 127.95 800.89 L 119.64 791.11 L 111.74 780.93 L 104.23 770.36 L 97.12 759.39 L 90.56 748.22 L 84.43 736.64 L 78.73 724.62 L 73.45 712.15 L 68.61 699.21 L 64.21 685.77 L 60.46 672.48 L 57.16 658.70 L 54.34 644.41 L 51.99 629.58 L 50.15 614.19 L 48.82 598.22 L 48.14 583.09 L 48.03 568.57 L 48.46 554.63 L 49.41 541.24 L 50.86 528.37 L 52.90 515.28 L 55.42 502.70 L 58.40 490.60 L 61.84 478.97 L 65.72 467.78 L 70.18 456.62 L 75.06 445.89 L 80.35 435.54 L 86.05 425.58 L 92.18 415.98 L 98.77 406.63 L 105.74 397.62 L 113.10 388.93 L 120.85 380.56 L 129.01 372.50 L 137.46 364.81 L 146.28 357.41 L 155.46 350.29 L 165.02 343.45 L 174.97 336.88 L 177.90 323.41 L 181.19 310.46 L 184.84 298.03 L 188.83 286.10 L 193.16 274.63 L 197.83 263.62 L 202.81 253.05 L 208.38 242.41 L 214.26 232.20 L 220.44 222.43 L 226.94 213.08 L 233.74 204.13 L 240.85 195.57 L 248.28 187.38 L 257.46 178.18 L 267.02 169.49 L 276.99 161.29 L 287.37 153.58 L 298.17 146.34 L 309.42 139.58 L 320.87 133.40 L 332.72 127.67 L 344.96 122.40 L 357.62 117.59 L 370.72 113.23 L 384.27 109.34 L 397.70 106.05 L 411.52 103.20 L 425.72 100.79 L 440.34 98.85 L 455.38 97.37 L 470.86 96.38 Z" fill="url(#radialGradient-1)" fill-rule="evenodd" group-id="1,2,6,18" node-id="281" stroke="none" target-height="831.9669" target-width="911.9464" target-x="48.031116" target-y="96.01346"></path></g><path d="M 470.86 96.38 L 485.27 96.01 L 499.38 96.26 L 513.21 97.12 L 526.78 98.56 L 540.11 100.60 L 553.45 103.25 L 566.45 106.45 L 579.14 110.18 L 591.52 114.44 L 603.62 119.24 L 615.55 124.62 L 627.10 130.48 L 638.29 136.81 L 649.13 143.63 L 659.63 150.95 L 669.80 158.75 L 679.54 166.99 L 688.88 175.66 L 697.82 184.77 L 706.36 194.34 L 714.43 204.28 L 722.02 214.61 L 729.16 225.35 L 735.83 236.49 L 742.05 248.07 L 753.36 253.33 L 764.52 258.98 L 775.54 265.01 L 786.41 271.43 L 797.15 278.25 L 810.23 287.24 L 822.93 296.74 L 835.27 306.77 L 847.26 317.34 L 856.54 326.15 L 865.50 335.23 L 874.13 344.59 L 882.46 354.24 L 890.47 364.18 L 898.14 374.40 L 905.41 384.85 L 912.28 395.53 L 918.76 406.44 L 924.86 417.61 L 930.52 428.99 L 935.71 440.56 L 940.44 452.32 L 944.70 464.28 L 948.49 476.45 L 951.77 488.74 L 954.50 501.18 L 956.70 513.79 L 958.35 526.58 L 959.46 539.55 L 959.98 552.48 L 959.88 565.54 L 959.17 578.77 L 957.83 592.16 L 955.84 605.75 L 953.02 620.58 L 949.77 634.95 L 946.10 648.88 L 942.01 662.38 L 937.51 675.47 L 932.61 688.17 L 927.16 700.86 L 921.32 713.16 L 915.10 725.06 L 908.50 736.57 L 901.52 747.73 L 894.15 758.52 L 886.33 769.08 L 878.15 779.28 L 869.61 789.13 L 860.71 798.64 L 851.44 807.81 L 841.79 816.64 L 831.85 825.09 L 821.58 833.20 L 810.95 840.98 L 799.96 848.44 L 788.61 855.57 L 776.88 862.38 L 768.16 867.78 L 758.82 873.07 L 748.83 878.22 L 738.14 883.24 L 727.49 887.78 L 716.08 892.19 L 703.87 896.45 L 690.83 900.56 L 677.95 904.20 L 664.18 907.67 L 649.47 910.97 L 633.78 914.08 L 618.38 916.75 L 601.95 919.23 L 584.46 921.49 L 565.85 923.53 L 544.70 925.39 L 523.95 926.75 L 503.60 927.61 L 483.64 927.98 L 464.05 927.87 L 444.19 927.26 L 424.81 926.15 L 405.90 924.54 L 387.44 922.45 L 369.42 919.89 L 351.22 916.75 L 333.57 913.11 L 316.44 908.98 L 299.82 904.39 L 283.69 899.32 L 270.19 894.59 L 257.10 889.51 L 244.41 884.11 L 232.10 878.37 L 220.16 872.30 L 208.58 865.90 L 197.11 859.00 L 186.06 851.76 L 175.42 844.18 L 165.17 836.25 L 155.30 827.97 L 145.82 819.34 L 136.67 810.30 L 127.95 800.89 L 119.64 791.11 L 111.74 780.93 L 104.23 770.36 L 97.12 759.39 L 90.56 748.22 L 84.43 736.64 L 78.73 724.62 L 73.45 712.15 L 68.61 699.21 L 64.21 685.77 L 60.46 672.48 L 57.16 658.70 L 54.34 644.41 L 51.99 629.58 L 50.15 614.19 L 48.82 598.22 L 48.14 583.09 L 48.03 568.57 L 48.46 554.63 L 49.41 541.24 L 50.86 528.37 L 52.90 515.28 L 55.42 502.70 L 58.40 490.60 L 61.84 478.97 L 65.72 467.78 L 70.18 456.62 L 75.06 445.89 L 80.35 435.54 L 86.05 425.58 L 92.18 415.98 L 98.77 406.63 L 105.74 397.62 L 113.10 388.93 L 120.85 380.56 L 129.01 372.50 L 137.46 364.81 L 146.28 357.41 L 155.46 350.29 L 165.02 343.45 L 174.97 336.88 L 177.90 323.41 L 181.19 310.46 L 184.84 298.03 L 188.83 286.10 L 193.16 274.63 L 197.83 263.62 L 202.81 253.05 L 208.38 242.41 L 214.26 232.20 L 220.44 222.43 L 226.94 213.08 L 233.74 204.13 L 240.85 195.57 L 248.28 187.38 L 257.46 178.18 L 267.02 169.49 L 276.99 161.29 L 287.37 153.58 L 298.17 146.34 L 309.42 139.58 L 320.87 133.40 L 332.72 127.67 L 344.96 122.40 L 357.62 117.59 L 370.72 113.23 L 384.27 109.34 L 397.70 106.05 L 411.52 103.20 L 425.72 100.79 L 440.34 98.85 L 455.38 97.37 L 470.86 96.38 Z" fill="#000000" fill-rule="evenodd" filter="url(#filter-3)" group-id="1,2,6,19" node-id="286" stroke="none" target-height="831.9669" target-width="911.9464" target-x="48.031116" target-y="96.01346"></path></g><g node-id="409"><g node-id="422"><path d="M 369.74 612.19 L 372.46 612.43 L 374.97 613.06 L 377.30 614.09 L 379.45 615.48 L 381.32 617.15 L 382.93 619.13 L 384.20 621.33 L 385.10 623.72 L 385.64 626.33 L 385.74 628.19 L 386.02 631.45 L 386.86 634.57 L 388.29 637.60 L 390.36 640.57 L 393.16 643.52 L 396.12 645.93 L 399.77 648.31 L 404.21 650.65 L 409.56 652.94 L 415.92 655.17 L 423.44 657.27 L 432.31 659.21 L 442.69 660.96 L 454.77 662.46 L 463.62 663.26 L 473.03 663.89 L 483.01 664.35 L 493.55 664.62 L 499.04 664.69 L 510.33 664.69 L 521.20 664.51 L 536.47 663.88 L 545.95 663.24 L 550.48 662.85 L 559.14 661.96 L 570.21 660.43 L 579.82 658.69 L 588.12 656.78 L 595.23 654.72 L 601.22 652.60 L 606.33 650.40 L 610.66 648.16 L 614.28 645.88 L 617.28 643.57 L 620.18 640.76 L 622.43 637.93 L 624.08 635.05 L 625.21 632.10 L 625.83 629.05 L 625.96 627.48 L 626.36 624.58 L 627.21 621.94 L 628.50 619.51 L 630.19 617.34 L 632.17 615.52 L 634.49 614.03 L 637.02 612.96 L 639.72 612.35 L 642.65 612.21 L 645.56 612.61 L 648.20 613.46 L 650.62 614.75 L 652.80 616.44 L 654.61 618.43 L 656.10 620.74 L 657.17 623.27 L 657.78 625.98 L 657.93 628.90 L 657.40 634.60 L 656.39 639.95 L 654.91 644.98 L 652.97 649.73 L 650.56 654.22 L 647.66 658.49 L 644.27 662.53 L 640.00 666.70 L 635.07 670.66 L 629.41 674.41 L 622.97 677.95 L 615.67 681.26 L 607.41 684.31 L 598.03 687.13 L 587.53 689.66 L 575.79 691.86 L 562.72 693.70 L 548.21 695.13 L 537.98 695.83 L 521.81 696.50 L 510.49 696.69 L 498.95 696.69 L 487.83 696.50 L 477.12 696.12 L 466.84 695.54 L 456.89 694.75 L 447.57 693.78 L 438.59 692.60 L 427.13 690.68 L 416.82 688.45 L 407.57 685.95 L 399.29 683.20 L 391.91 680.23 L 385.53 677.14 L 379.88 673.87 L 374.89 670.41 L 370.51 666.78 L 366.69 662.96 L 363.40 658.97 L 360.49 654.58 L 358.10 649.94 L 356.23 645.01 L 354.87 639.77 L 354.04 634.18 L 353.74 628.19 L 354.01 625.27 L 354.74 622.60 L 355.93 620.12 L 357.52 617.87 L 359.42 615.97 L 361.67 614.38 L 364.15 613.20 L 366.82 612.47 L 369.74 612.19 Z" fill="#ed1f2a" fill-rule="nonzero" group-id="1,2,7,20" node-id="293" stroke="none" target-height="84.50012" target-width="304.1832" target-x="353.7429" target-y="612.1938"></path></g><path d="M 369.74 612.19 L 372.46 612.43 L 374.97 613.06 L 377.30 614.09 L 379.45 615.48 L 381.32 617.15 L 382.93 619.13 L 384.20 621.33 L 385.10 623.72 L 385.64 626.33 L 385.74 628.19 L 386.02 631.45 L 386.86 634.57 L 388.29 637.60 L 390.36 640.57 L 393.16 643.52 L 396.12 645.93 L 399.77 648.31 L 404.21 650.65 L 409.56 652.94 L 415.92 655.17 L 423.44 657.27 L 432.31 659.21 L 442.69 660.96 L 454.77 662.46 L 463.62 663.26 L 473.03 663.89 L 483.01 664.35 L 493.55 664.62 L 499.04 664.69 L 510.33 664.69 L 521.20 664.51 L 536.47 663.88 L 545.95 663.24 L 550.48 662.85 L 559.14 661.96 L 570.21 660.43 L 579.82 658.69 L 588.12 656.78 L 595.23 654.72 L 601.22 652.60 L 606.33 650.40 L 610.66 648.16 L 614.28 645.88 L 617.28 643.57 L 620.18 640.76 L 622.43 637.93 L 624.08 635.05 L 625.21 632.10 L 625.83 629.05 L 625.96 627.48 L 626.36 624.58 L 627.21 621.94 L 628.50 619.51 L 630.19 617.34 L 632.17 615.52 L 634.49 614.03 L 637.02 612.96 L 639.72 612.35 L 642.65 612.21 L 645.56 612.61 L 648.20 613.46 L 650.62 614.75 L 652.80 616.44 L 654.61 618.43 L 656.10 620.74 L 657.17 623.27 L 657.78 625.98 L 657.93 628.90 L 657.40 634.60 L 656.39 639.95 L 654.91 644.98 L 652.97 649.73 L 650.56 654.22 L 647.66 658.49 L 644.27 662.53 L 640.00 666.70 L 635.07 670.66 L 629.41 674.41 L 622.97 677.95 L 615.67 681.26 L 607.41 684.31 L 598.03 687.13 L 587.53 689.66 L 575.79 691.86 L 562.72 693.70 L 548.21 695.13 L 537.98 695.83 L 521.81 696.50 L 510.49 696.69 L 498.95 696.69 L 487.83 696.50 L 477.12 696.12 L 466.84 695.54 L 456.89 694.75 L 447.57 693.78 L 438.59 692.60 L 427.13 690.68 L 416.82 688.45 L 407.57 685.95 L 399.29 683.20 L 391.91 680.23 L 385.53 677.14 L 379.88 673.87 L 374.89 670.41 L 370.51 666.78 L 366.69 662.96 L 363.40 658.97 L 360.49 654.58 L 358.10 649.94 L 356.23 645.01 L 354.87 639.77 L 354.04 634.18 L 353.74 628.19 L 354.01 625.27 L 354.74 622.60 L 355.93 620.12 L 357.52 617.87 L 359.42 615.97 L 361.67 614.38 L 364.15 613.20 L 366.82 612.47 L 369.74 612.19 Z" fill="#000000" fill-rule="nonzero" filter="url(#filter-5)" group-id="1,2,7,21" node-id="298" stroke="none" target-height="84.50012" target-width="304.1832" target-x="353.7429" target-y="612.1938"></path></g><g node-id="410"><path d="M 832.00 560.00 L 831.70 564.60 L 830.85 569.06 L 829.47 573.42 L 827.51 577.70 L 825.13 581.72 L 822.27 585.62 L 818.91 589.40 L 815.02 593.07 L 810.91 596.38 L 806.38 599.50 L 801.41 602.44 L 795.97 605.20 L 790.45 607.57 L 784.60 609.70 L 778.40 611.56 L 771.81 613.15 L 765.24 614.36 L 758.42 615.25 L 751.34 615.80 L 744.00 616.00 L 736.66 615.80 L 729.58 615.25 L 722.76 614.36 L 716.19 613.15 L 709.60 611.56 L 703.40 609.70 L 697.55 607.57 L 692.03 605.20 L 686.59 602.44 L 681.62 599.50 L 677.09 596.38 L 672.98 593.07 L 669.09 589.40 L 665.73 585.62 L 662.87 581.72 L 660.49 577.70 L 658.53 573.42 L 657.15 569.06 L 656.30 564.60 L 656.00 560.00 L 656.30 555.40 L 657.15 550.94 L 658.54 546.58 L 660.49 542.30 L 662.87 538.28 L 665.73 534.38 L 669.09 530.60 L 672.98 526.93 L 677.09 523.62 L 681.62 520.50 L 686.59 517.56 L 692.03 514.80 L 697.55 512.43 L 703.40 510.30 L 709.60 508.44 L 716.19 506.85 L 722.76 505.64 L 729.58 504.75 L 736.66 504.20 L 744.00 504.00 L 751.34 504.20 L 758.42 504.75 L 765.24 505.64 L 771.81 506.85 L 778.40 508.44 L 784.60 510.30 L 790.45 512.43 L 795.97 514.80 L 801.41 517.56 L 806.38 520.50 L 810.91 523.62 L 815.02 526.93 L 818.91 530.60 L 822.27 534.38 L 825.13 538.28 L 827.51 542.30 L 829.47 546.58 L 830.85 550.94 L 831.70 555.40 L 832.00 560.00 Z" fill="#ff5ea4" fill-opacity="0.8" fill-rule="evenodd" filter="url(#filter-6)" group-id="1,2,8" id="椭圆形" node-id="94" stroke="none" target-height="112" target-width="176" target-x="656" target-y="504"></path></g><path d="M 352.00 560.00 L 351.70 564.60 L 350.85 569.06 L 349.47 573.42 L 347.51 577.70 L 345.13 581.72 L 342.27 585.62 L 338.91 589.40 L 335.02 593.07 L 330.91 596.38 L 326.38 599.50 L 321.41 602.44 L 315.97 605.20 L 310.45 607.57 L 304.60 609.70 L 298.40 611.56 L 291.81 613.15 L 285.24 614.36 L 278.42 615.25 L 271.34 615.80 L 264.00 616.00 L 256.66 615.80 L 249.58 615.25 L 242.76 614.36 L 236.19 613.15 L 229.60 611.56 L 223.40 609.70 L 217.55 607.57 L 212.03 605.20 L 206.59 602.44 L 201.62 599.50 L 197.09 596.38 L 192.98 593.07 L 189.09 589.40 L 185.73 585.62 L 182.87 581.72 L 180.49 577.70 L 178.53 573.42 L 177.15 569.06 L 176.30 564.60 L 176.00 560.00 L 176.30 555.40 L 177.15 550.94 L 178.53 546.58 L 180.49 542.30 L 182.87 538.28 L 185.73 534.38 L 189.09 530.60 L 192.98 526.93 L 197.09 523.62 L 201.62 520.50 L 206.59 517.56 L 212.03 514.80 L 217.55 512.43 L 223.40 510.30 L 229.60 508.44 L 236.19 506.85 L 242.76 505.64 L 249.58 504.75 L 256.66 504.20 L 264.00 504.00 L 271.34 504.20 L 278.42 504.75 L 285.24 505.64 L 291.81 506.85 L 298.40 508.44 L 304.60 510.30 L 310.45 512.43 L 315.97 514.80 L 321.41 517.56 L 326.38 520.50 L 330.91 523.62 L 335.02 526.93 L 338.91 530.60 L 342.27 534.38 L 345.13 538.28 L 347.51 542.30 L 349.47 546.58 L 350.85 550.94 L 351.70 555.40 L 352.00 560.00 Z" fill="#ff5ea4" fill-opacity="0.8" fill-rule="evenodd" filter="url(#filter-7)" group-id="1,2,9" id="椭圆形备份-6" node-id="95" stroke="none" target-height="112" target-width="176" target-x="176" target-y="504"></path></g><g node-id="405"><g node-id="412"><g node-id="424"><path d="M 256.00 560.00 L 269.30 559.85 L 282.05 559.36 L 294.28 558.52 L 306.48 557.24 L 317.93 555.49 L 328.68 553.32 L 336.71 551.25 L 344.22 548.88 L 351.25 546.20 L 357.82 543.22 L 364.23 539.75 L 370.10 535.91 L 375.46 531.69 L 380.34 527.08 L 383.90 523.08 L 387.13 518.76 L 390.03 514.11 L 392.61 509.11 L 394.86 503.73 L 396.62 498.34 L 398.04 492.52 L 399.09 486.21 L 399.76 479.39 L 400.00 472.00 L 399.76 464.61 L 399.09 457.79 L 398.04 451.48 L 396.62 445.66 L 394.86 440.27 L 392.61 434.89 L 390.03 429.89 L 387.13 425.24 L 383.90 420.92 L 380.34 416.92 L 375.46 412.31 L 370.10 408.09 L 364.23 404.25 L 357.82 400.78 L 351.25 397.80 L 344.22 395.12 L 336.71 392.75 L 328.68 390.68 L 317.93 388.51 L 306.48 386.76 L 294.28 385.48 L 282.05 384.64 L 269.30 384.15 L 256.00 384.00 L 242.70 384.15 L 229.95 384.64 L 217.72 385.48 L 205.52 386.76 L 194.07 388.51 L 183.32 390.68 L 175.29 392.75 L 167.78 395.12 L 160.75 397.80 L 154.18 400.78 L 147.77 404.25 L 141.90 408.09 L 136.54 412.31 L 131.66 416.92 L 128.10 420.92 L 124.87 425.24 L 121.97 429.89 L 119.39 434.89 L 117.14 440.27 L 115.38 445.66 L 113.96 451.48 L 112.91 457.79 L 112.24 464.61 L 112.00 472.00 L 112.24 479.39 L 112.91 486.21 L 113.96 492.52 L 115.38 498.34 L 117.14 503.73 L 119.39 509.11 L 121.97 514.11 L 124.87 518.76 L 128.10 523.08 L 131.66 527.08 L 136.54 531.69 L 141.90 535.91 L 147.77 539.75 L 154.18 543.22 L 160.75 546.20 L 167.78 548.88 L 175.29 551.25 L 183.32 553.32 L 194.07 555.49 L 205.52 557.24 L 217.72 558.52 L 229.95 559.36 L 242.70 559.85 L 256.00 560.00 Z" fill="#000000" fill-rule="evenodd" filter="url(#filter-10)" group-id="1,3,10,22" node-id="315" stroke="none" target-height="176" target-width="288" target-x="112" target-y="384"></path></g><g node-id="425"><path d="M 256.00 560.00 L 269.30 559.85 L 282.05 559.36 L 294.28 558.52 L 306.48 557.24 L 317.93 555.49 L 328.68 553.32 L 336.71 551.25 L 344.22 548.88 L 351.25 546.20 L 357.82 543.22 L 364.23 539.75 L 370.10 535.91 L 375.46 531.69 L 380.34 527.08 L 383.90 523.08 L 387.13 518.76 L 390.03 514.11 L 392.61 509.11 L 394.86 503.73 L 396.62 498.34 L 398.04 492.52 L 399.09 486.21 L 399.76 479.39 L 400.00 472.00 L 399.76 464.61 L 399.09 457.79 L 398.04 451.48 L 396.62 445.66 L 394.86 440.27 L 392.61 434.89 L 390.03 429.89 L 387.13 425.24 L 383.90 420.92 L 380.34 416.92 L 375.46 412.31 L 370.10 408.09 L 364.23 404.25 L 357.82 400.78 L 351.25 397.80 L 344.22 395.12 L 336.71 392.75 L 328.68 390.68 L 317.93 388.51 L 306.48 386.76 L 294.28 385.48 L 282.05 384.64 L 269.30 384.15 L 256.00 384.00 L 242.70 384.15 L 229.95 384.64 L 217.72 385.48 L 205.52 386.76 L 194.07 388.51 L 183.32 390.68 L 175.29 392.75 L 167.78 395.12 L 160.75 397.80 L 154.18 400.78 L 147.77 404.25 L 141.90 408.09 L 136.54 412.31 L 131.66 416.92 L 128.10 420.92 L 124.87 425.24 L 121.97 429.89 L 119.39 434.89 L 117.14 440.27 L 115.38 445.66 L 113.96 451.48 L 112.91 457.79 L 112.24 464.61 L 112.00 472.00 L 112.24 479.39 L 112.91 486.21 L 113.96 492.52 L 115.38 498.34 L 117.14 503.73 L 119.39 509.11 L 121.97 514.11 L 124.87 518.76 L 128.10 523.08 L 131.66 527.08 L 136.54 531.69 L 141.90 535.91 L 147.77 539.75 L 154.18 543.22 L 160.75 546.20 L 167.78 548.88 L 175.29 551.25 L 183.32 553.32 L 194.07 555.49 L 205.52 557.24 L 217.72 558.52 L 229.95 559.36 L 242.70 559.85 L 256.00 560.00 Z" fill="url(#linearGradient-8)" fill-rule="evenodd" group-id="1,3,10,23" node-id="320" stroke="none" target-height="176" target-width="288" target-x="112" target-y="384"></path></g><path d="M 256.00 560.00 L 269.30 559.85 L 282.05 559.36 L 294.28 558.52 L 306.48 557.24 L 317.93 555.49 L 328.68 553.32 L 336.71 551.25 L 344.22 548.88 L 351.25 546.20 L 357.82 543.22 L 364.23 539.75 L 370.10 535.91 L 375.46 531.69 L 380.34 527.08 L 383.90 523.08 L 387.13 518.76 L 390.03 514.11 L 392.61 509.11 L 394.86 503.73 L 396.62 498.34 L 398.04 492.52 L 399.09 486.21 L 399.76 479.39 L 400.00 472.00 L 399.76 464.61 L 399.09 457.79 L 398.04 451.48 L 396.62 445.66 L 394.86 440.27 L 392.61 434.89 L 390.03 429.89 L 387.13 425.24 L 383.90 420.92 L 380.34 416.92 L 375.46 412.31 L 370.10 408.09 L 364.23 404.25 L 357.82 400.78 L 351.25 397.80 L 344.22 395.12 L 336.71 392.75 L 328.68 390.68 L 317.93 388.51 L 306.48 386.76 L 294.28 385.48 L 282.05 384.64 L 269.30 384.15 L 256.00 384.00 L 242.70 384.15 L 229.95 384.64 L 217.72 385.48 L 205.52 386.76 L 194.07 388.51 L 183.32 390.68 L 175.29 392.75 L 167.78 395.12 L 160.75 397.80 L 154.18 400.78 L 147.77 404.25 L 141.90 408.09 L 136.54 412.31 L 131.66 416.92 L 128.10 420.92 L 124.87 425.24 L 121.97 429.89 L 119.39 434.89 L 117.14 440.27 L 115.38 445.66 L 113.96 451.48 L 112.91 457.79 L 112.24 464.61 L 112.00 472.00 L 112.24 479.39 L 112.91 486.21 L 113.96 492.52 L 115.38 498.34 L 117.14 503.73 L 119.39 509.11 L 121.97 514.11 L 124.87 518.76 L 128.10 523.08 L 131.66 527.08 L 136.54 531.69 L 141.90 535.91 L 147.77 539.75 L 154.18 543.22 L 160.75 546.20 L 167.78 548.88 L 175.29 551.25 L 183.32 553.32 L 194.07 555.49 L 205.52 557.24 L 217.72 558.52 L 229.95 559.36 L 242.70 559.85 L 256.00 560.00 Z" fill="#000000" fill-rule="evenodd" filter="url(#filter-11)" group-id="1,3,10,24" node-id="325" stroke="none" target-height="176" target-width="288" target-x="112" target-y="384"></path></g><g node-id="413"><g node-id="427"><g node-id="432"><path d="M 400.00 480.80 L 399.79 485.92 L 399.21 490.86 L 398.27 495.64 L 396.98 500.27 L 394.70 506.28 L 391.90 511.91 L 388.56 517.18 L 384.71 522.09 L 380.43 526.53 L 375.72 530.51 L 371.93 533.18 L 367.96 535.52 L 363.81 537.55 L 359.45 539.26 L 354.98 540.61 L 350.38 541.58 L 345.63 542.18 L 340.71 542.40 L 335.78 542.18 L 331.03 541.58 L 326.43 540.61 L 321.96 539.26 L 317.60 537.55 L 313.45 535.52 L 309.48 533.18 L 305.69 530.51 L 300.98 526.53 L 296.70 522.09 L 292.85 517.18 L 289.51 511.91 L 286.71 506.28 L 284.43 500.27 L 283.14 495.64 L 282.20 490.86 L 281.62 485.92 L 281.41 480.80 L 281.62 475.68 L 282.20 470.74 L 283.14 465.96 L 284.43 461.33 L 286.71 455.32 L 289.51 449.69 L 292.85 444.42 L 296.70 439.51 L 300.98 435.07 L 305.69 431.09 L 309.48 428.42 L 313.45 426.08 L 317.60 424.06 L 321.96 422.34 L 326.43 420.99 L 331.03 420.02 L 335.78 419.42 L 340.71 419.20 L 345.63 419.42 L 350.38 420.02 L 354.98 420.99 L 359.45 422.34 L 363.81 424.06 L 367.96 426.08 L 371.93 428.42 L 375.72 431.09 L 380.43 435.07 L 384.71 439.51 L 388.56 444.42 L 391.90 449.69 L 394.70 455.32 L 396.98 461.33 L 398.27 465.96 L 399.21 470.74 L 399.79 475.68 L 400.00 480.80 Z" fill="#930027" fill-rule="evenodd" group-id="1,3,11,25,30" node-id="333" stroke="none" target-height="123.20001" target-width="118.58823" target-x="281.41174" target-y="419.2"></path></g><path d="M 400.00 480.80 L 399.79 485.92 L 399.21 490.86 L 398.27 495.64 L 396.98 500.27 L 394.70 506.28 L 391.90 511.91 L 388.56 517.18 L 384.71 522.09 L 380.43 526.53 L 375.72 530.51 L 371.93 533.18 L 367.96 535.52 L 363.81 537.55 L 359.45 539.26 L 354.98 540.61 L 350.38 541.58 L 345.63 542.18 L 340.71 542.40 L 335.78 542.18 L 331.03 541.58 L 326.43 540.61 L 321.96 539.26 L 317.60 537.55 L 313.45 535.52 L 309.48 533.18 L 305.69 530.51 L 300.98 526.53 L 296.70 522.09 L 292.85 517.18 L 289.51 511.91 L 286.71 506.28 L 284.43 500.27 L 283.14 495.64 L 282.20 490.86 L 281.62 485.92 L 281.41 480.80 L 281.62 475.68 L 282.20 470.74 L 283.14 465.96 L 284.43 461.33 L 286.71 455.32 L 289.51 449.69 L 292.85 444.42 L 296.70 439.51 L 300.98 435.07 L 305.69 431.09 L 309.48 428.42 L 313.45 426.08 L 317.60 424.06 L 321.96 422.34 L 326.43 420.99 L 331.03 420.02 L 335.78 419.42 L 340.71 419.20 L 345.63 419.42 L 350.38 420.02 L 354.98 420.99 L 359.45 422.34 L 363.81 424.06 L 367.96 426.08 L 371.93 428.42 L 375.72 431.09 L 380.43 435.07 L 384.71 439.51 L 388.56 444.42 L 391.90 449.69 L 394.70 455.32 L 396.98 461.33 L 398.27 465.96 L 399.21 470.74 L 399.79 475.68 L 400.00 480.80 Z" fill="#000000" fill-rule="evenodd" filter="url(#filter-13)" group-id="1,3,11,25,31" node-id="338" stroke="none" target-height="123.20001" target-width="118.58823" target-x="281.41174" target-y="419.2"></path></g><path d="M 370.35 463.20 L 370.07 467.43 L 369.29 471.42 L 368.02 475.19 L 366.29 478.77 L 364.17 482.02 L 361.67 484.98 L 358.81 487.59 L 355.68 489.79 L 352.25 491.58 L 348.61 492.90 L 344.77 493.71 L 340.71 494.00 L 336.64 493.71 L 332.80 492.90 L 329.17 491.58 L 325.73 489.79 L 322.60 487.59 L 319.74 484.98 L 317.24 482.02 L 315.12 478.77 L 313.39 475.19 L 312.12 471.42 L 311.34 467.43 L 311.06 463.20 L 311.34 458.97 L 312.12 454.98 L 313.39 451.21 L 315.12 447.63 L 317.24 444.38 L 319.74 441.42 L 322.60 438.81 L 325.73 436.61 L 329.17 434.82 L 332.80 433.50 L 336.64 432.69 L 340.71 432.40 L 344.77 432.69 L 348.61 433.50 L 352.25 434.82 L 355.68 436.61 L 358.81 438.81 L 361.67 441.42 L 364.17 444.38 L 366.29 447.63 L 368.02 451.21 L 369.29 454.98 L 370.07 458.97 L 370.35 463.20 Z" fill="#301502" fill-rule="evenodd" group-id="1,3,11" id="椭圆形" node-id="105" stroke="none" target-height="61.600006" target-width="59.294098" target-x="311.0588" target-y="432.4"></path><path d="M 385.18 440.10 L 384.95 443.30 L 384.37 446.29 L 383.43 449.11 L 382.14 451.76 L 380.52 454.25 L 378.65 456.44 L 376.54 458.37 L 374.16 460.05 L 371.60 461.39 L 368.89 462.36 L 366.01 462.97 L 362.94 463.20 L 359.87 462.97 L 356.99 462.36 L 354.28 461.39 L 351.72 460.05 L 349.34 458.37 L 347.23 456.44 L 345.36 454.25 L 343.74 451.76 L 342.45 449.11 L 341.51 446.29 L 340.93 443.30 L 340.71 440.10 L 340.93 436.90 L 341.51 433.91 L 342.45 431.09 L 343.74 428.44 L 345.36 425.95 L 347.23 423.76 L 349.34 421.83 L 351.72 420.15 L 354.28 418.81 L 356.99 417.84 L 359.87 417.23 L 362.94 417.00 L 366.01 417.23 L 368.89 417.84 L 371.60 418.81 L 374.16 420.15 L 376.54 421.83 L 378.65 423.76 L 380.52 425.95 L 382.14 428.44 L 383.43 431.09 L 384.37 433.91 L 384.95 436.90 L 385.18 440.10 Z" fill="#ffffff" fill-rule="evenodd" group-id="1,3,11" id="椭圆形" node-id="106" stroke="none" target-height="46.200012" target-width="44.47058" target-x="340.70587" target-y="417"></path><path d="M 340.71 478.60 L 340.45 481.41 L 339.78 483.99 L 338.68 486.37 L 337.20 488.54 L 335.44 490.37 L 333.36 491.90 L 331.06 493.04 L 328.58 493.74 L 325.88 494.00 L 323.18 493.74 L 320.70 493.04 L 318.40 491.90 L 316.33 490.37 L 314.56 488.54 L 313.08 486.37 L 311.99 483.99 L 311.31 481.41 L 311.06 478.60 L 311.31 475.79 L 311.99 473.21 L 313.08 470.83 L 314.56 468.66 L 316.33 466.83 L 318.40 465.30 L 320.70 464.16 L 323.18 463.46 L 325.88 463.20 L 328.58 463.46 L 331.06 464.16 L 333.36 465.30 L 335.44 466.83 L 337.20 468.66 L 338.68 470.83 L 339.78 473.21 L 340.45 475.79 L 340.71 478.60 Z" fill="#ffffff" fill-rule="evenodd" group-id="1,3,11" id="椭圆形备份-5" node-id="107" stroke="none" target-height="30.799988" target-width="29.647064" target-x="311.0588" target-y="463.2"></path></g></g><g node-id="406"><g node-id="414"><g node-id="428"><path d="M 640.00 560.00 L 653.30 559.85 L 666.05 559.36 L 678.28 558.52 L 690.48 557.24 L 701.93 555.49 L 712.68 553.32 L 720.71 551.25 L 728.22 548.88 L 735.25 546.20 L 741.82 543.22 L 748.23 539.75 L 754.10 535.91 L 759.46 531.69 L 764.34 527.08 L 767.90 523.08 L 771.13 518.76 L 774.03 514.11 L 776.61 509.11 L 778.86 503.73 L 780.62 498.34 L 782.04 492.52 L 783.09 486.21 L 783.76 479.39 L 784.00 472.00 L 783.76 464.61 L 783.09 457.79 L 782.04 451.48 L 780.62 445.66 L 778.86 440.27 L 776.61 434.89 L 774.03 429.89 L 771.13 425.24 L 767.90 420.92 L 764.34 416.92 L 759.46 412.31 L 754.10 408.09 L 748.23 404.25 L 741.82 400.78 L 735.25 397.80 L 728.22 395.12 L 720.71 392.75 L 712.68 390.68 L 701.93 388.51 L 690.48 386.76 L 678.28 385.48 L 666.05 384.64 L 653.30 384.15 L 640.00 384.00 L 626.70 384.15 L 613.95 384.64 L 601.72 385.48 L 589.52 386.76 L 578.07 388.51 L 567.32 390.68 L 559.29 392.75 L 551.78 395.12 L 544.75 397.80 L 538.18 400.78 L 531.77 404.25 L 525.90 408.09 L 520.54 412.31 L 515.66 416.92 L 512.10 420.92 L 508.87 425.24 L 505.97 429.89 L 503.39 434.89 L 501.14 440.27 L 499.38 445.66 L 497.96 451.48 L 496.91 457.79 L 496.24 464.61 L 496.00 472.00 L 496.24 479.39 L 496.91 486.21 L 497.96 492.52 L 499.38 498.34 L 501.14 503.73 L 503.39 509.11 L 505.97 514.11 L 508.87 518.76 L 512.10 523.08 L 515.66 527.08 L 520.54 531.69 L 525.90 535.91 L 531.77 539.75 L 538.18 543.22 L 544.75 546.20 L 551.78 548.88 L 559.29 551.25 L 567.32 553.32 L 578.07 555.49 L 589.52 557.24 L 601.72 558.52 L 613.95 559.36 L 626.70 559.85 L 640.00 560.00 Z" fill="#000000" fill-rule="evenodd" filter="url(#filter-15)" group-id="1,4,12,26" node-id="351" stroke="none" target-height="176" target-width="288" target-x="496" target-y="384"></path></g><g node-id="429"><path d="M 640.00 560.00 L 653.30 559.85 L 666.05 559.36 L 678.28 558.52 L 690.48 557.24 L 701.93 555.49 L 712.68 553.32 L 720.71 551.25 L 728.22 548.88 L 735.25 546.20 L 741.82 543.22 L 748.23 539.75 L 754.10 535.91 L 759.46 531.69 L 764.34 527.08 L 767.90 523.08 L 771.13 518.76 L 774.03 514.11 L 776.61 509.11 L 778.86 503.73 L 780.62 498.34 L 782.04 492.52 L 783.09 486.21 L 783.76 479.39 L 784.00 472.00 L 783.76 464.61 L 783.09 457.79 L 782.04 451.48 L 780.62 445.66 L 778.86 440.27 L 776.61 434.89 L 774.03 429.89 L 771.13 425.24 L 767.90 420.92 L 764.34 416.92 L 759.46 412.31 L 754.10 408.09 L 748.23 404.25 L 741.82 400.78 L 735.25 397.80 L 728.22 395.12 L 720.71 392.75 L 712.68 390.68 L 701.93 388.51 L 690.48 386.76 L 678.28 385.48 L 666.05 384.64 L 653.30 384.15 L 640.00 384.00 L 626.70 384.15 L 613.95 384.64 L 601.72 385.48 L 589.52 386.76 L 578.07 388.51 L 567.32 390.68 L 559.29 392.75 L 551.78 395.12 L 544.75 397.80 L 538.18 400.78 L 531.77 404.25 L 525.90 408.09 L 520.54 412.31 L 515.66 416.92 L 512.10 420.92 L 508.87 425.24 L 505.97 429.89 L 503.39 434.89 L 501.14 440.27 L 499.38 445.66 L 497.96 451.48 L 496.91 457.79 L 496.24 464.61 L 496.00 472.00 L 496.24 479.39 L 496.91 486.21 L 497.96 492.52 L 499.38 498.34 L 501.14 503.73 L 503.39 509.11 L 505.97 514.11 L 508.87 518.76 L 512.10 523.08 L 515.66 527.08 L 520.54 531.69 L 525.90 535.91 L 531.77 539.75 L 538.18 543.22 L 544.75 546.20 L 551.78 548.88 L 559.29 551.25 L 567.32 553.32 L 578.07 555.49 L 589.52 557.24 L 601.72 558.52 L 613.95 559.36 L 626.70 559.85 L 640.00 560.00 Z" fill="url(#linearGradient-8)" fill-rule="evenodd" group-id="1,4,12,27" node-id="356" stroke="none" target-height="176" target-width="288" target-x="496" target-y="384"></path></g><path d="M 640.00 560.00 L 653.30 559.85 L 666.05 559.36 L 678.28 558.52 L 690.48 557.24 L 701.93 555.49 L 712.68 553.32 L 720.71 551.25 L 728.22 548.88 L 735.25 546.20 L 741.82 543.22 L 748.23 539.75 L 754.10 535.91 L 759.46 531.69 L 764.34 527.08 L 767.90 523.08 L 771.13 518.76 L 774.03 514.11 L 776.61 509.11 L 778.86 503.73 L 780.62 498.34 L 782.04 492.52 L 783.09 486.21 L 783.76 479.39 L 784.00 472.00 L 783.76 464.61 L 783.09 457.79 L 782.04 451.48 L 780.62 445.66 L 778.86 440.27 L 776.61 434.89 L 774.03 429.89 L 771.13 425.24 L 767.90 420.92 L 764.34 416.92 L 759.46 412.31 L 754.10 408.09 L 748.23 404.25 L 741.82 400.78 L 735.25 397.80 L 728.22 395.12 L 720.71 392.75 L 712.68 390.68 L 701.93 388.51 L 690.48 386.76 L 678.28 385.48 L 666.05 384.64 L 653.30 384.15 L 640.00 384.00 L 626.70 384.15 L 613.95 384.64 L 601.72 385.48 L 589.52 386.76 L 578.07 388.51 L 567.32 390.68 L 559.29 392.75 L 551.78 395.12 L 544.75 397.80 L 538.18 400.78 L 531.77 404.25 L 525.90 408.09 L 520.54 412.31 L 515.66 416.92 L 512.10 420.92 L 508.87 425.24 L 505.97 429.89 L 503.39 434.89 L 501.14 440.27 L 499.38 445.66 L 497.96 451.48 L 496.91 457.79 L 496.24 464.61 L 496.00 472.00 L 496.24 479.39 L 496.91 486.21 L 497.96 492.52 L 499.38 498.34 L 501.14 503.73 L 503.39 509.11 L 505.97 514.11 L 508.87 518.76 L 512.10 523.08 L 515.66 527.08 L 520.54 531.69 L 525.90 535.91 L 531.77 539.75 L 538.18 543.22 L 544.75 546.20 L 551.78 548.88 L 559.29 551.25 L 567.32 553.32 L 578.07 555.49 L 589.52 557.24 L 601.72 558.52 L 613.95 559.36 L 626.70 559.85 L 640.00 560.00 Z" fill="#000000" fill-rule="evenodd" filter="url(#filter-16)" group-id="1,4,12,28" node-id="361" stroke="none" target-height="176" target-width="288" target-x="496" target-y="384"></path></g><g node-id="415"><g node-id="431"><g node-id="434"><path d="M 784.00 480.80 L 783.79 485.92 L 783.21 490.86 L 782.27 495.64 L 780.98 500.27 L 778.70 506.28 L 775.90 511.91 L 772.56 517.18 L 768.71 522.09 L 764.43 526.53 L 759.72 530.51 L 755.93 533.18 L 751.96 535.52 L 747.81 537.55 L 743.45 539.26 L 738.98 540.61 L 734.38 541.58 L 729.63 542.18 L 724.71 542.40 L 719.78 542.18 L 715.03 541.58 L 710.43 540.61 L 705.96 539.26 L 701.60 537.55 L 697.45 535.52 L 693.48 533.18 L 689.69 530.51 L 684.98 526.53 L 680.70 522.09 L 676.85 517.18 L 673.51 511.91 L 670.71 506.28 L 668.43 500.27 L 667.14 495.64 L 666.20 490.86 L 665.62 485.92 L 665.41 480.80 L 665.62 475.68 L 666.20 470.74 L 667.14 465.96 L 668.43 461.33 L 670.71 455.32 L 673.51 449.69 L 676.85 444.42 L 680.70 439.51 L 684.98 435.07 L 689.69 431.09 L 693.48 428.42 L 697.45 426.08 L 701.60 424.06 L 705.96 422.34 L 710.43 420.99 L 715.03 420.02 L 719.78 419.42 L 724.71 419.20 L 729.63 419.42 L 734.38 420.02 L 738.98 420.99 L 743.45 422.34 L 747.81 424.06 L 751.96 426.08 L 755.93 428.42 L 759.72 431.09 L 764.43 435.07 L 768.71 439.51 L 772.56 444.42 L 775.90 449.69 L 778.70 455.32 L 780.98 461.33 L 782.27 465.96 L 783.21 470.74 L 783.79 475.68 L 784.00 480.80 Z" fill="#930027" fill-rule="evenodd" group-id="1,4,13,29,32" node-id="369" stroke="none" target-height="123.20001" target-width="118.58826" target-x="665.41174" target-y="419.2"></path></g><path d="M 784.00 480.80 L 783.79 485.92 L 783.21 490.86 L 782.27 495.64 L 780.98 500.27 L 778.70 506.28 L 775.90 511.91 L 772.56 517.18 L 768.71 522.09 L 764.43 526.53 L 759.72 530.51 L 755.93 533.18 L 751.96 535.52 L 747.81 537.55 L 743.45 539.26 L 738.98 540.61 L 734.38 541.58 L 729.63 542.18 L 724.71 542.40 L 719.78 542.18 L 715.03 541.58 L 710.43 540.61 L 705.96 539.26 L 701.60 537.55 L 697.45 535.52 L 693.48 533.18 L 689.69 530.51 L 684.98 526.53 L 680.70 522.09 L 676.85 517.18 L 673.51 511.91 L 670.71 506.28 L 668.43 500.27 L 667.14 495.64 L 666.20 490.86 L 665.62 485.92 L 665.41 480.80 L 665.62 475.68 L 666.20 470.74 L 667.14 465.96 L 668.43 461.33 L 670.71 455.32 L 673.51 449.69 L 676.85 444.42 L 680.70 439.51 L 684.98 435.07 L 689.69 431.09 L 693.48 428.42 L 697.45 426.08 L 701.60 424.06 L 705.96 422.34 L 710.43 420.99 L 715.03 420.02 L 719.78 419.42 L 724.71 419.20 L 729.63 419.42 L 734.38 420.02 L 738.98 420.99 L 743.45 422.34 L 747.81 424.06 L 751.96 426.08 L 755.93 428.42 L 759.72 431.09 L 764.43 435.07 L 768.71 439.51 L 772.56 444.42 L 775.90 449.69 L 778.70 455.32 L 780.98 461.33 L 782.27 465.96 L 783.21 470.74 L 783.79 475.68 L 784.00 480.80 Z" fill="#000000" fill-rule="evenodd" filter="url(#filter-18)" group-id="1,4,13,29,33" node-id="374" stroke="none" target-height="123.20001" target-width="118.58826" target-x="665.41174" target-y="419.2"></path></g><path d="M 754.35 480.80 L 754.07 485.03 L 753.29 489.02 L 752.02 492.79 L 750.29 496.37 L 748.17 499.62 L 745.67 502.58 L 742.81 505.19 L 739.68 507.39 L 736.25 509.18 L 732.61 510.50 L 728.77 511.31 L 724.71 511.60 L 720.64 511.31 L 716.80 510.50 L 713.17 509.18 L 709.73 507.39 L 706.60 505.19 L 703.74 502.58 L 701.24 499.62 L 699.12 496.37 L 697.39 492.79 L 696.12 489.02 L 695.34 485.03 L 695.06 480.80 L 695.34 476.57 L 696.12 472.58 L 697.39 468.81 L 699.12 465.23 L 701.24 461.98 L 703.74 459.02 L 706.60 456.41 L 709.73 454.21 L 713.17 452.42 L 716.80 451.10 L 720.64 450.29 L 724.71 450.00 L 728.77 450.29 L 732.61 451.10 L 736.25 452.42 L 739.68 454.21 L 742.81 456.41 L 745.67 459.02 L 748.17 461.98 L 750.29 465.23 L 752.02 468.81 L 753.29 472.58 L 754.07 476.57 L 754.35 480.80 Z" fill="#301502" fill-rule="evenodd" group-id="1,4,13" id="椭圆形" node-id="117" stroke="none" target-height="61.600006" target-width="59.29413" target-x="695.0588" target-y="450"></path><path d="M 769.18 457.70 L 768.95 460.90 L 768.37 463.89 L 767.43 466.71 L 766.14 469.36 L 764.52 471.85 L 762.65 474.04 L 760.54 475.97 L 758.16 477.65 L 755.60 478.99 L 752.89 479.96 L 750.01 480.57 L 746.94 480.80 L 743.87 480.57 L 740.99 479.96 L 738.28 478.99 L 735.72 477.65 L 733.34 475.97 L 731.23 474.04 L 729.36 471.85 L 727.74 469.36 L 726.45 466.71 L 725.51 463.89 L 724.93 460.90 L 724.71 457.70 L 724.93 454.50 L 725.51 451.51 L 726.45 448.69 L 727.74 446.04 L 729.36 443.55 L 731.23 441.36 L 733.34 439.43 L 735.72 437.75 L 738.28 436.41 L 740.99 435.44 L 743.87 434.83 L 746.94 434.60 L 750.01 434.83 L 752.89 435.44 L 755.60 436.41 L 758.16 437.75 L 760.54 439.43 L 762.65 441.36 L 764.52 443.55 L 766.14 446.04 L 767.43 448.69 L 768.37 451.51 L 768.95 454.50 L 769.18 457.70 Z" fill="#ffffff" fill-rule="evenodd" group-id="1,4,13" id="椭圆形" node-id="118" stroke="none" target-height="46.200012" target-width="44.47058" target-x="724.7059" target-y="434.6"></path><path d="M 724.71 496.20 L 724.45 499.01 L 723.78 501.59 L 722.68 503.97 L 721.20 506.14 L 719.44 507.97 L 717.36 509.50 L 715.06 510.64 L 712.58 511.34 L 709.88 511.60 L 707.18 511.34 L 704.70 510.64 L 702.40 509.50 L 700.33 507.97 L 698.56 506.14 L 697.08 503.97 L 695.99 501.59 L 695.31 499.01 L 695.06 496.20 L 695.31 493.39 L 695.99 490.81 L 697.08 488.43 L 698.56 486.26 L 700.33 484.43 L 702.40 482.90 L 704.70 481.76 L 707.18 481.06 L 709.88 480.80 L 712.58 481.06 L 715.06 481.76 L 717.36 482.90 L 719.44 484.43 L 721.20 486.26 L 722.68 488.43 L 723.78 490.81 L 724.45 493.39 L 724.71 496.20 Z" fill="#ffffff" fill-rule="evenodd" group-id="1,4,13" id="椭圆形备份-5" node-id="119" stroke="none" target-height="30.799988" target-width="29.647095" target-x="695.0588" target-y="480.80002"></path></g></g><g node-id="407"><g node-id="416"><path d="M 257.31 302.03 C 107.98 307.61 40.23 376.00 54.06 507.20 C 67.89 638.40 155.73 683.86 317.58 643.60 C 397.26 699.61 445.51 733.81 462.33 746.20 C 487.56 764.77 564.80 738.08 513.57 675.83 C 479.41 634.34 436.09 593.80 383.61 554.22 C 462.32 618.96 512.17 659.50 533.16 675.83 C 564.65 700.34 642.77 675.83 589.06 613.59 C 553.26 572.09 506.53 533.11 448.86 496.63 C 551.64 458.12 609.73 432.18 623.14 418.79 C 643.26 398.72 656.53 350.22 595.56 350.22 C 554.92 350.22 494.12 368.76 413.15 405.83 C 507.71 363.10 566.34 337.77 589.06 329.83 C 623.14 317.93 638.36 235.27 549.77 258.49 C 490.71 273.97 428.03 297.75 361.74 329.83 C 404.41 246.97 411.70 194.23 383.61 171.62 C 341.48 137.70 302.30 249.03 285.43 275.33 C 274.18 292.85 264.81 301.75 257.31 302.03 Z" fill="#000000" fill-rule="evenodd" filter="url(#filter-21)" group-id="1,5,14" node-id="386" stroke="none" target-height="627.0781" target-width="616.29614" target-x="40.230633" target-y="137.69539"></path></g><g node-id="417"><path d="M 257.31 302.03 C 107.98 307.61 40.23 376.00 54.06 507.20 C 67.89 638.40 155.73 683.86 317.58 643.60 C 397.26 699.61 445.51 733.81 462.33 746.20 C 487.56 764.77 564.80 738.08 513.57 675.83 C 479.41 634.34 436.09 593.80 383.61 554.22 C 462.32 618.96 512.17 659.50 533.16 675.83 C 564.65 700.34 642.77 675.83 589.06 613.59 C 553.26 572.09 506.53 533.11 448.86 496.63 C 551.64 458.12 609.73 432.18 623.14 418.79 C 643.26 398.72 656.53 350.22 595.56 350.22 C 554.92 350.22 494.12 368.76 413.15 405.83 C 507.71 363.10 566.34 337.77 589.06 329.83 C 623.14 317.93 638.36 235.27 549.77 258.49 C 490.71 273.97 428.03 297.75 361.74 329.83 C 404.41 246.97 411.70 194.23 383.61 171.62 C 341.48 137.70 302.30 249.03 285.43 275.33 C 274.18 292.85 264.81 301.75 257.31 302.03 Z" fill="url(#linearGradient-19)" fill-rule="evenodd" group-id="1,5,15" node-id="391" stroke="none" target-height="627.0781" target-width="616.29614" target-x="40.230633" target-y="137.69539"></path></g><g node-id="418"><path d="M 257.31 302.03 C 107.98 307.61 40.23 376.00 54.06 507.20 C 67.89 638.40 155.73 683.86 317.58 643.60 C 397.26 699.61 445.51 733.81 462.33 746.20 C 487.56 764.77 564.80 738.08 513.57 675.83 C 479.41 634.34 436.09 593.80 383.61 554.22 C 462.32 618.96 512.17 659.50 533.16 675.83 C 564.65 700.34 642.77 675.83 589.06 613.59 C 553.26 572.09 506.53 533.11 448.86 496.63 C 551.64 458.12 609.73 432.18 623.14 418.79 C 643.26 398.72 656.53 350.22 595.56 350.22 C 554.92 350.22 494.12 368.76 413.15 405.83 C 507.71 363.10 566.34 337.77 589.06 329.83 C 623.14 317.93 638.36 235.27 549.77 258.49 C 490.71 273.97 428.03 297.75 361.74 329.83 C 404.41 246.97 411.70 194.23 383.61 171.62 C 341.48 137.70 302.30 249.03 285.43 275.33 C 274.18 292.85 264.81 301.75 257.31 302.03 Z" fill="#000000" fill-rule="evenodd" filter="url(#filter-22)" group-id="1,5,16" node-id="396" stroke="none" target-height="627.0781" target-width="616.29614" target-x="40.230633" target-y="137.69539"></path></g><path d="M 257.31 302.03 C 107.98 307.61 40.23 376.00 54.06 507.20 C 67.89 638.40 155.73 683.86 317.58 643.60 C 397.26 699.61 445.51 733.81 462.33 746.20 C 487.56 764.77 564.80 738.08 513.57 675.83 C 479.41 634.34 436.09 593.80 383.61 554.22 C 462.32 618.96 512.17 659.50 533.16 675.83 C 564.65 700.34 642.77 675.83 589.06 613.59 C 553.26 572.09 506.53 533.11 448.86 496.63 C 551.64 458.12 609.73 432.18 623.14 418.79 C 643.26 398.72 656.53 350.22 595.56 350.22 C 554.92 350.22 494.12 368.76 413.15 405.83 C 507.71 363.10 566.34 337.77 589.06 329.83 C 623.14 317.93 638.36 235.27 549.77 258.49 C 490.71 273.97 428.03 297.75 361.74 329.83 C 404.41 246.97 411.70 194.23 383.61 171.62 C 341.48 137.70 302.30 249.03 285.43 275.33 C 274.18 292.85 264.81 301.75 257.31 302.03 Z" fill="none" group-id="1,5,17" node-id="401" stroke="#efaa2e" stroke-linecap="butt" stroke-width="12.8" target-height="627.0781" target-width="616.29614" target-x="40.230633" target-y="137.69539"></path></g></g></svg>